<svg class="main-svg" xmlns="http://www.w3.org/2000/svg" xmlns:xlink="http://www.w3.org/1999/xlink" width="700" height="600" viewBox="0 0 700 600"><rect x="0" y="0" width="700" height="600" style="fill: rgb(255, 255, 255); fill-opacity: 1;"/><defs id="defs-1a683c"><g class="clips"><clipPath id="clip1a683cxyplot" class="plotclip"><rect width="540" height="460"/></clipPath><clipPath class="axesclip" id="clip1a683cx"><rect x="80" y="0" width="540" height="600"/></clipPath><clipPath class="axesclip" id="clip1a683cy"><rect x="0" y="60" width="700" height="460"/></clipPath><clipPath class="axesclip" id="clip1a683cxy"><rect x="80" y="60" width="540" height="460"/></clipPath></g><g class="gradients"/></defs><g class="bglayer"><rect class="bg" x="80" y="60" width="540" height="460" style="fill: rgb(229, 236, 246); fill-opacity: 1; stroke-width: 0;"/></g><g class="layer-below"><g class="imagelayer"/><g class="shapelayer"/></g><g class="cartesianlayer"><g class="subplot xy"><g class="layer-subplot"><g class="shapelayer"/><g class="imagelayer"/></g><g class="gridlayer"><g class="x"/><g class="y"><path class="ygrid crisp" transform="translate(0,496.75)" d="M80,0h540" style="stroke: rgb(255, 255, 255); stroke-opacity: 1; stroke-width: 1px;"/><path class="ygrid crisp" transform="translate(0,398.43)" d="M80,0h540" style="stroke: rgb(255, 255, 255); stroke-opacity: 1; stroke-width: 1px;"/><path class="ygrid crisp" transform="translate(0,349.28)" d="M80,0h540" style="stroke: rgb(255, 255, 255); stroke-opacity: 1; stroke-width: 1px;"/><path class="ygrid crisp" transform="translate(0,300.12)" d="M80,0h540" style="stroke: rgb(255, 255, 255); stroke-opacity: 1; stroke-width: 1px;"/><path class="ygrid crisp" transform="translate(0,250.96)" d="M80,0h540" style="stroke: rgb(255, 255, 255); stroke-opacity: 1; stroke-width: 1px;"/><path class="ygrid crisp" transform="translate(0,201.8)" d="M80,0h540" style="stroke: rgb(255, 255, 255); stroke-opacity: 1; stroke-width: 1px;"/><path class="ygrid crisp" transform="translate(0,152.64)" d="M80,0h540" style="stroke: rgb(255, 255, 255); stroke-opacity: 1; stroke-width: 1px;"/><path class="ygrid crisp" transform="translate(0,103.49000000000001)" d="M80,0h540" style="stroke: rgb(255, 255, 255); stroke-opacity: 1; stroke-width: 1px;"/></g></g><g class="zerolinelayer"><path class="yzl zl crisp" transform="translate(0,447.59)" d="M80,0h540" style="stroke: rgb(255, 255, 255); stroke-opacity: 1; stroke-width: 2px;"/></g><path class="xlines-below"/><path class="ylines-below"/><g class="overlines-below"/><g class="xaxislayer-below"/><g class="yaxislayer-below"/><g class="overaxes-below"/><g class="plot" transform="translate(80, 60)" clip-path="url('#clip1a683cxyplot')"><g class="violinlayer mlayer"><g class="trace violins" style="opacity: 1;"><path class="violin" d="M136.67,437Q137.59,431.57 138.28,428.88C138.98,426.16 139.83,423.44 140.87,420.77C141.93,418.03 143.19,415.32 144.6,412.65C146.05,409.9 147.73,407.2 149.48,404.53C151.27,401.79 153.25,399.11 155.23,396.42C157.23,393.7 159.37,391.01 161.42,388.3C163.46,385.6 165.56,382.91 167.51,380.18C169.43,377.5 171.32,374.81 173.02,372.07C174.68,369.4 176.25,366.7 177.59,363.95C178.89,361.28 180.06,358.58 180.97,355.84C181.86,353.17 182.56,350.45 183,347.72C183.44,345.03 183.64,342.31 183.62,339.6C183.6,336.9 183.32,334.18 182.9,331.49C182.48,328.77 181.8,326.06 181.1,323.37C180.39,320.65 179.49,317.95 178.65,315.25C177.81,312.54 176.88,309.85 176.05,307.14C175.22,304.44 174.4,301.73 173.66,299.02C172.93,296.32 172.27,293.61 171.64,290.9C171.01,288.2 170.47,285.49 169.89,282.79C169.31,280.08 168.77,277.37 168.17,274.67C167.56,271.96 166.95,269.25 166.26,266.55C165.57,263.84 164.81,261.14 164.01,258.44C163.2,255.73 162.33,253.02 161.43,250.32C160.52,247.61 159.56,244.9 158.59,242.2C157.62,239.49 156.61,236.8 155.62,234.09C154.64,231.39 153.63,228.68 152.68,225.97C151.73,223.27 150.79,220.56 149.93,217.85C149.07,215.15 148.25,212.45 147.51,209.74C146.77,207.04 146.1,204.33 145.48,201.62C144.86,198.92 144.32,196.22 143.8,193.51C143.29,190.81 142.83,188.1 142.39,185.39C141.95,182.69 141.54,179.98 141.14,177.27C140.74,174.57 140.37,171.87 140,169.16C139.64,166.46 139.28,163.75 138.95,161.04C138.62,158.33 138.31,155.63 138.04,152.92C137.77,150.22 137.53,147.52 137.33,144.81C137.13,142.11 136.96,139.4 136.83,136.69C136.7,133.98 136.63,131.28 136.56,128.57C136.49,125.87 136.46,123.16 136.43,120.46C136.4,117.75 136.4,115.05 136.38,112.34C136.36,109.63 136.35,106.93 136.31,104.22C136.28,101.52 136.23,98.81 136.17,96.11C136.11,93.4 136.03,90.7 135.96,87.99C135.88,85.28 135.8,82.58 135.72,79.87C135.64,77.17 135.56,74.46 135.49,71.76C135.42,69.05 135.36,66.35 135.3,63.64Q135.25,60.93 135.16,55.52L134.84,55.52Q134.75,60.93 134.7,63.64C134.64,66.35 134.58,69.05 134.51,71.76C134.44,74.46 134.36,77.17 134.28,79.87C134.2,82.58 134.12,85.28 134.04,87.99C133.97,90.7 133.89,93.4 133.83,96.11C133.77,98.81 133.72,101.52 133.69,104.22C133.65,106.93 133.64,109.63 133.62,112.34C133.6,115.05 133.6,117.75 133.57,120.46C133.54,123.16 133.51,125.87 133.44,128.57C133.37,131.28 133.3,133.98 133.17,136.69C133.04,139.4 132.87,142.11 132.67,144.81C132.47,147.52 132.23,150.22 131.96,152.92C131.69,155.63 131.38,158.33 131.05,161.04C130.72,163.75 130.36,166.46 130,169.16C129.63,171.87 129.26,174.57 128.86,177.27C128.46,179.98 128.05,182.69 127.61,185.39C127.17,188.1 126.71,190.81 126.2,193.51C125.68,196.22 125.14,198.92 124.52,201.62C123.9,204.33 123.23,207.04 122.49,209.74C121.75,212.45 120.93,215.15 120.07,217.85C119.21,220.56 118.27,223.27 117.32,225.97C116.37,228.68 115.36,231.39 114.38,234.09C113.39,236.8 112.38,239.49 111.41,242.2C110.44,244.9 109.48,247.61 108.57,250.32C107.67,253.02 106.8,255.73 105.99,258.44C105.19,261.14 104.43,263.84 103.74,266.55C103.05,269.25 102.44,271.96 101.83,274.67C101.23,277.37 100.69,280.08 100.11,282.79C99.53,285.49 98.99,288.2 98.36,290.9C97.73,293.61 97.07,296.32 96.34,299.02C95.6,301.73 94.78,304.44 93.95,307.14C93.12,309.85 92.19,312.54 91.35,315.25C90.51,317.95 89.61,320.65 88.9,323.37C88.2,326.06 87.52,328.77 87.1,331.49C86.68,334.18 86.4,336.9 86.38,339.6C86.36,342.31 86.56,345.03 87,347.72C87.44,350.45 88.14,353.17 89.03,355.84C89.94,358.58 91.11,361.28 92.41,363.95C93.75,366.7 95.32,369.4 96.98,372.07C98.68,374.81 100.57,377.5 102.49,380.18C104.44,382.91 106.54,385.6 108.58,388.3C110.63,391.01 112.77,393.7 114.77,396.42C116.75,399.11 118.73,401.79 120.52,404.53C122.27,407.2 123.95,409.9 125.4,412.65C126.81,415.32 128.07,418.03 129.13,420.77C130.17,423.44 131.02,426.16 131.72,428.88Q132.41,431.57 133.33,437Z" style="vector-effect: non-scaling-stroke; stroke-width: 2px; stroke: rgb(99, 110, 250); stroke-opacity: 1; fill: rgb(99, 110, 250); fill-opacity: 0.5;"/><path class="violin" d="M405.44,420.37Q405.69,416.73 405.87,414.92C406.05,413.1 406.28,411.29 406.54,409.48C406.81,407.66 407.12,405.85 407.46,404.04C407.8,402.22 408.2,400.41 408.58,398.59C408.96,396.78 409.38,394.97 409.74,393.15C410.09,391.34 410.45,389.53 410.71,387.71C410.97,385.9 411.19,384.08 411.31,382.26C411.43,380.45 411.45,378.63 411.42,376.82C411.39,375.01 411.25,373.19 411.11,371.38C410.97,369.56 410.75,367.75 410.57,365.93C410.39,364.12 410.18,362.3 410.03,360.49C409.88,358.68 409.75,356.87 409.69,355.05C409.63,353.24 409.61,351.42 409.64,349.6C409.67,347.79 409.77,345.97 409.89,344.16C410.01,342.35 410.18,340.53 410.37,338.72C410.56,336.9 410.78,335.08 411.03,333.27C411.28,331.45 411.56,329.64 411.87,327.83C412.18,326.01 412.53,324.2 412.9,322.39C413.28,320.57 413.68,318.75 414.12,316.94C414.56,315.12 415.04,313.31 415.53,311.5C416.02,309.68 416.54,307.87 417.08,306.06C417.62,304.24 418.19,302.42 418.77,300.61C419.35,298.79 419.95,296.98 420.56,295.17C421.18,293.35 421.82,291.54 422.46,289.73C423.1,287.91 423.76,286.1 424.4,284.28C425.04,282.47 425.7,280.66 426.31,278.84C426.92,277.03 427.51,275.22 428.07,273.4C428.63,271.59 429.14,269.77 429.66,267.95C430.18,266.14 430.64,264.32 431.17,262.51C431.7,260.69 432.2,258.87 432.82,257.07C433.45,255.24 434.11,253.41 434.93,251.62C435.77,249.78 436.71,247.96 437.79,246.18C438.91,244.33 440.2,242.52 441.58,240.74C443.02,238.89 444.64,237.08 446.3,235.29C448.01,233.45 449.88,231.65 451.71,229.85C453.56,228.03 455.52,226.24 457.35,224.41C459.15,222.61 460.99,220.82 462.62,218.96C464.18,217.18 465.71,215.39 466.94,213.52C468.1,211.76 469.14,209.94 469.85,208.08C470.52,206.31 470.99,204.46 471.15,202.63C471.3,200.83 471.17,198.98 470.8,197.19C470.42,195.35 469.71,193.51 468.86,191.74C467.96,189.88 466.77,188.06 465.48,186.3C464.11,184.43 462.49,182.64 460.81,180.86C459.05,179 457.11,177.2 455.15,175.41C453.13,173.57 450.99,171.78 448.87,169.97C446.73,168.15 444.53,166.35 442.39,164.53C440.27,162.72 438.14,160.91 436.09,159.08C434.09,157.28 432.11,155.48 430.24,153.64C428.43,151.85 426.68,150.05 425.05,148.2C423.48,146.42 421.98,144.6 420.63,142.75C419.33,140.97 418.12,139.16 417.05,137.31C416.02,135.53 415.11,133.71 414.32,131.87C413.55,130.08 412.92,128.25 412.37,126.42C411.83,124.62 411.42,122.8 411.06,120.98C410.7,119.17 410.44,117.36 410.19,115.54C409.94,113.73 409.75,111.91 409.54,110.09C409.33,108.28 409.15,106.46 408.95,104.65C408.75,102.84 408.53,101.02 408.32,99.21C408.1,97.39 407.88,95.58 407.66,93.76C407.44,91.95 407.22,90.13 407.02,88.32C406.82,86.51 406.63,84.7 406.48,82.88C406.33,81.07 406.2,79.25 406.1,77.43C406,75.62 405.94,73.8 405.89,71.99C405.84,70.18 405.84,68.36 405.82,66.55C405.8,64.73 405.81,62.92 405.8,61.1C405.79,59.29 405.79,57.47 405.78,55.66C405.77,53.85 405.74,52.03 405.71,50.22C405.68,48.4 405.63,46.59 405.59,44.77C405.55,42.96 405.5,41.14 405.45,39.33C405.4,37.52 405.34,35.7 405.3,33.89C405.25,32.07 405.21,30.26 405.18,28.44Q405.15,26.63 405.1,23L404.9,23Q404.85,26.63 404.82,28.44C404.79,30.26 404.75,32.07 404.7,33.89C404.66,35.7 404.6,37.52 404.55,39.33C404.5,41.14 404.45,42.96 404.41,44.77C404.37,46.59 404.32,48.4 404.29,50.22C404.26,52.03 404.23,53.85 404.22,55.66C404.21,57.47 404.21,59.29 404.2,61.1C404.19,62.92 404.2,64.73 404.18,66.55C404.16,68.36 404.16,70.18 404.11,71.99C404.06,73.8 404,75.62 403.9,77.43C403.8,79.25 403.67,81.07 403.52,82.88C403.37,84.7 403.18,86.51 402.98,88.32C402.78,90.13 402.56,91.95 402.34,93.76C402.12,95.58 401.9,97.39 401.68,99.21C401.47,101.02 401.25,102.84 401.05,104.65C400.85,106.46 400.67,108.28 400.46,110.09C400.25,111.91 400.06,113.73 399.81,115.54C399.56,117.36 399.3,119.17 398.94,120.98C398.58,122.8 398.17,124.62 397.63,126.42C397.08,128.25 396.45,130.08 395.68,131.87C394.89,133.71 393.98,135.53 392.95,137.31C391.88,139.16 390.67,140.97 389.37,142.75C388.02,144.6 386.52,146.42 384.95,148.2C383.32,150.05 381.57,151.85 379.76,153.64C377.89,155.48 375.91,157.28 373.91,159.08C371.86,160.91 369.73,162.72 367.61,164.53C365.47,166.35 363.27,168.15 361.13,169.97C359.01,171.78 356.87,173.57 354.85,175.41C352.89,177.2 350.95,179 349.19,180.86C347.51,182.64 345.89,184.43 344.52,186.3C343.23,188.06 342.04,189.88 341.14,191.74C340.29,193.51 339.58,195.35 339.2,197.19C338.83,198.98 338.7,200.83 338.85,202.63C339.01,204.46 339.48,206.31 340.15,208.08C340.86,209.94 341.9,211.76 343.06,213.52C344.29,215.39 345.82,217.18 347.38,218.96C349.01,220.82 350.85,222.61 352.65,224.41C354.48,226.24 356.44,228.03 358.29,229.85C360.12,231.65 361.99,233.45 363.7,235.29C365.36,237.08 366.98,238.89 368.42,240.74C369.8,242.52 371.09,244.33 372.21,246.18C373.29,247.96 374.23,249.78 375.07,251.62C375.89,253.41 376.55,255.24 377.18,257.07C377.8,258.87 378.3,260.69 378.83,262.51C379.36,264.32 379.82,266.14 380.34,267.95C380.86,269.77 381.37,271.59 381.93,273.4C382.49,275.22 383.08,277.03 383.69,278.84C384.3,280.66 384.96,282.47 385.6,284.28C386.24,286.1 386.9,287.91 387.54,289.73C388.18,291.54 388.82,293.35 389.44,295.17C390.05,296.98 390.65,298.79 391.23,300.61C391.81,302.42 392.38,304.24 392.92,306.06C393.46,307.87 393.98,309.68 394.47,311.5C394.96,313.31 395.44,315.12 395.88,316.94C396.32,318.75 396.72,320.57 397.1,322.39C397.47,324.2 397.82,326.01 398.13,327.83C398.44,329.64 398.72,331.45 398.97,333.27C399.22,335.08 399.44,336.9 399.63,338.72C399.82,340.53 399.99,342.35 400.11,344.16C400.23,345.97 400.33,347.79 400.36,349.6C400.39,351.42 400.37,353.24 400.31,355.05C400.25,356.87 400.12,358.68 399.97,360.49C399.82,362.3 399.61,364.12 399.43,365.93C399.25,367.75 399.03,369.56 398.89,371.38C398.75,373.19 398.61,375.01 398.58,376.82C398.55,378.63 398.57,380.45 398.69,382.26C398.81,384.08 399.03,385.9 399.29,387.71C399.55,389.53 399.91,391.34 400.26,393.15C400.62,394.97 401.04,396.78 401.42,398.59C401.8,400.41 402.2,402.22 402.54,404.04C402.88,405.85 403.19,407.66 403.46,409.48C403.72,411.29 403.95,413.1 404.13,414.92Q404.31,416.73 404.56,420.37Z" style="vector-effect: non-scaling-stroke; stroke-width: 2px; stroke: rgb(99, 110, 250); stroke-opacity: 1; fill: rgb(99, 110, 250); fill-opacity: 0.5;"/><path class="box" d="M118.46,326.14H151.54M118.46,350.72H151.54V270.84H118.46ZM135,350.72V387.59M135,270.84V160.24" style="vector-effect: non-scaling-stroke; stroke-width: 2px; stroke: rgb(99, 110, 250); stroke-opacity: 1; fill: rgb(99, 110, 250); fill-opacity: 0.5;"/><path class="box" d="M388.46,210.42H421.54M388.46,247.29H421.54V184.82H388.46ZM405,247.29V338.43M405,184.82V98.79" style="vector-effect: non-scaling-stroke; stroke-width: 2px; stroke: rgb(99, 110, 250); stroke-opacity: 1; fill: rgb(99, 110, 250); fill-opacity: 0.5;"/><g class="points"><path class="point" transform="translate(135,104.93)" d="M3,0A3,3 0 1,1 0,-3A3,3 0 0,1 3,0Z" style="opacity: 1; stroke-width: 0px; fill: rgb(99, 110, 250); fill-opacity: 1;"/></g><g class="points"><path class="point" transform="translate(405,387.59)" d="M3,0A3,3 0 1,1 0,-3A3,3 0 0,1 3,0Z" style="opacity: 1; stroke-width: 0px; fill: rgb(99, 110, 250); fill-opacity: 1;"/><path class="point" transform="translate(405,387.59)" d="M3,0A3,3 0 1,1 0,-3A3,3 0 0,1 3,0Z" style="opacity: 1; stroke-width: 0px; fill: rgb(99, 110, 250); fill-opacity: 1;"/><path class="point" transform="translate(405,387.59)" d="M3,0A3,3 0 1,1 0,-3A3,3 0 0,1 3,0Z" style="opacity: 1; stroke-width: 0px; fill: rgb(99, 110, 250); fill-opacity: 1;"/><path class="point" transform="translate(405,381.45)" d="M3,0A3,3 0 1,1 0,-3A3,3 0 0,1 3,0Z" style="opacity: 1; stroke-width: 0px; fill: rgb(99, 110, 250); fill-opacity: 1;"/><path class="point" transform="translate(405,381.45)" d="M3,0A3,3 0 1,1 0,-3A3,3 0 0,1 3,0Z" style="opacity: 1; stroke-width: 0px; fill: rgb(99, 110, 250); fill-opacity: 1;"/><path class="point" transform="translate(405,375.3)" d="M3,0A3,3 0 1,1 0,-3A3,3 0 0,1 3,0Z" style="opacity: 1; stroke-width: 0px; fill: rgb(99, 110, 250); fill-opacity: 1;"/><path class="point" transform="translate(405,375.3)" d="M3,0A3,3 0 1,1 0,-3A3,3 0 0,1 3,0Z" style="opacity: 1; stroke-width: 0px; fill: rgb(99, 110, 250); fill-opacity: 1;"/><path class="point" transform="translate(405,375.3)" d="M3,0A3,3 0 1,1 0,-3A3,3 0 0,1 3,0Z" style="opacity: 1; stroke-width: 0px; fill: rgb(99, 110, 250); fill-opacity: 1;"/><path class="point" transform="translate(405,369.16)" d="M3,0A3,3 0 1,1 0,-3A3,3 0 0,1 3,0Z" style="opacity: 1; stroke-width: 0px; fill: rgb(99, 110, 250); fill-opacity: 1;"/><path class="point" transform="translate(405,350.72)" d="M3,0A3,3 0 1,1 0,-3A3,3 0 0,1 3,0Z" style="opacity: 1; stroke-width: 0px; fill: rgb(99, 110, 250); fill-opacity: 1;"/><path class="point" transform="translate(405,55.78)" d="M3,0A3,3 0 1,1 0,-3A3,3 0 0,1 3,0Z" style="opacity: 1; stroke-width: 0px; fill: rgb(99, 110, 250); fill-opacity: 1;"/></g></g></g></g><g class="overplot"/><path class="xlines-above crisp" d="M0,0" style="fill: none;"/><path class="ylines-above crisp" d="M0,0" style="fill: none;"/><g class="overlines-above"/><g class="xaxislayer-above"><g class="xtick"><text text-anchor="middle" x="0" y="533" transform="translate(215,0)" style="font-family: 'Open Sans', verdana, arial, sans-serif; font-size: 12px; fill: rgb(42, 63, 95); fill-opacity: 1; white-space: pre;">false</text></g><g class="xtick"><text text-anchor="middle" x="0" y="533" transform="translate(485,0)" style="font-family: 'Open Sans', verdana, arial, sans-serif; font-size: 12px; fill: rgb(42, 63, 95); fill-opacity: 1; white-space: pre;">true</text></g></g><g class="yaxislayer-above"><g class="ytick"><text text-anchor="end" x="79" y="4.199999999999999" transform="translate(0,496.75)" style="font-family: 'Open Sans', verdana, arial, sans-serif; font-size: 12px; fill: rgb(42, 63, 95); fill-opacity: 1; white-space: pre;">−2</text></g><g class="ytick"><text text-anchor="end" x="79" y="4.199999999999999" transform="translate(0,447.59)" style="font-family: 'Open Sans', verdana, arial, sans-serif; font-size: 12px; fill: rgb(42, 63, 95); fill-opacity: 1; white-space: pre;">0</text></g><g class="ytick"><text text-anchor="end" x="79" y="4.199999999999999" transform="translate(0,398.43)" style="font-family: 'Open Sans', verdana, arial, sans-serif; font-size: 12px; fill: rgb(42, 63, 95); fill-opacity: 1; white-space: pre;">2</text></g><g class="ytick"><text text-anchor="end" x="79" y="4.199999999999999" transform="translate(0,349.28)" style="font-family: 'Open Sans', verdana, arial, sans-serif; font-size: 12px; fill: rgb(42, 63, 95); fill-opacity: 1; white-space: pre;">4</text></g><g class="ytick"><text text-anchor="end" x="79" y="4.199999999999999" transform="translate(0,300.12)" style="font-family: 'Open Sans', verdana, arial, sans-serif; font-size: 12px; fill: rgb(42, 63, 95); fill-opacity: 1; white-space: pre;">6</text></g><g class="ytick"><text text-anchor="end" x="79" y="4.199999999999999" transform="translate(0,250.96)" style="font-family: 'Open Sans', verdana, arial, sans-serif; font-size: 12px; fill: rgb(42, 63, 95); fill-opacity: 1; white-space: pre;">8</text></g><g class="ytick"><text text-anchor="end" x="79" y="4.199999999999999" transform="translate(0,201.8)" style="font-family: 'Open Sans', verdana, arial, sans-serif; font-size: 12px; fill: rgb(42, 63, 95); fill-opacity: 1; white-space: pre;">10</text></g><g class="ytick"><text text-anchor="end" x="79" y="4.199999999999999" transform="translate(0,152.64)" style="font-family: 'Open Sans', verdana, arial, sans-serif; font-size: 12px; fill: rgb(42, 63, 95); fill-opacity: 1; white-space: pre;">12</text></g><g class="ytick"><text text-anchor="end" x="79" y="4.199999999999999" transform="translate(0,103.49000000000001)" style="font-family: 'Open Sans', verdana, arial, sans-serif; font-size: 12px; fill: rgb(42, 63, 95); fill-opacity: 1; white-space: pre;">14</text></g></g><g class="overaxes-above"/></g></g><g class="polarlayer"/><g class="ternarylayer"/><g class="geolayer"/><g class="funnelarealayer"/><g class="pielayer"/><g class="treemaplayer"/><g class="sunburstlayer"/><g class="glimages"/><defs id="topdefs-1a683c"><g class="clips"/></defs><g class="layer-above"><g class="imagelayer"/><g class="shapelayer"/></g><g class="infolayer"><g class="g-gtitle"/><g class="g-xtitle"><text class="xtitle" x="350" y="560.8" text-anchor="middle" style="font-family: 'Open Sans', verdana, arial, sans-serif; font-size: 14px; fill: rgb(42, 63, 95); opacity: 1; font-weight: normal; white-space: pre;">Weekday</text></g><g class="g-ytitle"><text class="ytitle" transform="rotate(-90,36.746875,290)" x="36.746875" y="290" text-anchor="middle" style="font-family: 'Open Sans', verdana, arial, sans-serif; font-size: 14px; fill: rgb(42, 63, 95); opacity: 1; font-weight: normal; white-space: pre;">Hours</text></g></g></svg>